<svg id="Calque_1" data-name="Calque 1" xmlns="http://www.w3.org/2000/svg" xmlns:xlink="http://www.w3.org/1999/xlink" viewBox="0 0 503.69 491.89"><defs><style>.cls-1,.cls-11,.cls-12,.cls-13,.cls-14,.cls-15,.cls-2,.cls-3,.cls-5,.cls-7,.cls-9{fill:none;}.cls-11,.cls-12,.cls-13,.cls-14,.cls-2,.cls-3{stroke:#fff;}.cls-2,.cls-3{stroke-miterlimit:4;}.cls-2{stroke-width:2px;}.cls-3{stroke-width:3px;}.cls-4{fill:url(#Dégradé_sans_nom_5);}.cls-5,.cls-9{stroke:#dbe7f9;}.cls-14,.cls-5,.cls-7{stroke-width:2px;}.cls-6{fill:url(#Dégradé_sans_nom_4);}.cls-15,.cls-7{stroke:#f8e3da;}.cls-8{fill:url(#Dégradé_sans_nom_4-2);}.cls-10{fill:url(#Dégradé_sans_nom_5-2);}.cls-12,.cls-13{stroke-linecap:round;}.cls-12{stroke-width:2px;}</style><radialGradient id="Dégradé_sans_nom_5" cx="-8.21" cy="628.51" r="0.5" gradientTransform="matrix(98.44, 0, 0, -101.12, 1131.97, 63608.81)" gradientUnits="userSpaceOnUse"><stop offset="0" stop-color="#fff"/><stop offset="1" stop-color="#dbe7f9"/></radialGradient><radialGradient id="Dégradé_sans_nom_4" cx="-8.24" cy="626.74" r="0.5" gradientTransform="matrix(47, 0, 0, -47.68, 739.81, 30061.12)" gradientUnits="userSpaceOnUse"><stop offset="0" stop-color="#fff"/><stop offset="1" stop-color="#f8e3da"/></radialGradient><radialGradient id="Dégradé_sans_nom_4-2" cx="-8.22" cy="628.11" r="0.5" gradientTransform="matrix(76.6, 0, 0, -80.63, 810.49, 50902)" xlink:href="#Dégradé_sans_nom_4"/><radialGradient id="Dégradé_sans_nom_5-2" cx="-8.24" cy="627.04" r="0.5" gradientTransform="matrix(50.04, 0, 0, -52.33, 760.56, 33140.16)" xlink:href="#Dégradé_sans_nom_5"/></defs><g id="Ellipse_1" data-name="Ellipse 1"><ellipse class="cls-1" cx="185.33" cy="100.84" rx="49.66" ry="181.44" transform="translate(45.37 258.72) rotate(-76.99)"/><ellipse class="cls-2" cx="185.33" cy="100.84" rx="48.66" ry="180.44" transform="translate(45.37 258.72) rotate(-76.99)"/></g><g id="Ellipse_2" data-name="Ellipse 2"><ellipse class="cls-1" cx="177.63" cy="135.29" rx="49.98" ry="181.94" transform="translate(5.83 277.91) rotate(-76.99)"/><ellipse class="cls-3" cx="177.63" cy="135.29" rx="48.48" ry="180.44" transform="translate(5.83 277.91) rotate(-76.99)"/></g><path id="Tracé_6" data-name="Tracé 6" class="cls-4" d="M372.58,52.13s-22.67,1.29-34.46,14.43-13.07,34.56-13.07,34.56h-2.86s1.17-21.6-11.6-34.56-36.45-14.43-36.45-14.43V49.71s24,0,36.45-13.42S325.05,0,325.05,0h2.05s2.55,25.56,11,36.29,34.46,12.9,34.46,12.9Z"/><path id="Tracé_8" data-name="Tracé 8" class="cls-5" d="M467.28,110.24s-18.15,1-27.58,10.81S429.24,147,429.24,147H427s.56-16.2-9.66-25.9-28.8-10.81-28.8-10.81v-2.38s18.83-.17,28.8-10.21,10.59-26.48,10.59-26.48h2.68s2.35,18.44,9.13,26.48S467.28,108,467.28,108Z"/><path id="Tracé_9" data-name="Tracé 9" class="cls-6" d="M376,178.6s-10.82.6-16.45,6.8-6.24,16.3-6.24,16.3H352s-.45-10.19-6.55-16.3S329,178.94,329,178.94V177.1s10.44.35,16.39-6,6.09-17.1,6.09-17.1h1.83s2.2,12,6.24,17.1S376,177.21,376,177.21Z"/><path id="Tracé_10" data-name="Tracé 10" class="cls-7" d="M427.69,0V34.87"/><path id="Tracé_11" data-name="Tracé 11" class="cls-7" d="M447.05,17.44H408.71"/><path id="Tracé_12" data-name="Tracé 12" class="cls-8" d="M142.48,260.53s17.64,1,26.82,11.5,10.17,27.56,10.17,27.56h2.22s.74-17.23,10.67-27.56,26.72-10.93,26.72-10.93V258s-17,.58-26.72-10.1S182.44,219,182.44,219h-3s-3.58,20.38-10.17,28.94S142.48,258,142.48,258Z"/><path id="Tracé_13" data-name="Tracé 13" class="cls-5" d="M41.48,224s14,.78,21.3,8.81,8.08,21.11,8.08,21.11h1.76s.59-13.2,8.48-21.11,21.22-9.23,21.22-9.23v-1.43s-13.52.36-21.22-7.83-7.88-22.16-7.88-22.16H70.86S68,207.76,62.78,214.31s-21.3,7.88-21.3,7.88Z"/><path id="Tracé_15" data-name="Tracé 15" class="cls-5" d="M139.53,89.66v30.5"/><path id="Tracé_16" data-name="Tracé 16" class="cls-5" d="M123.66,103.76h31.89"/><path id="Tracé_17" data-name="Tracé 17" class="cls-5" d="M98.74,310v31.53"/><path id="Tracé_18" data-name="Tracé 18" class="cls-5" d="M83.86,325.76H114.5"/><path id="Tracé_19" data-name="Tracé 19" class="cls-9" d="M151.24,337.28v23"/><path id="Tracé_20" data-name="Tracé 20" class="cls-9" d="M139.53,348.77H164"/><path id="Tracé_21" data-name="Tracé 21" class="cls-10" d="M373.42,326.57s-11.52.67-17.51,7.47-6.65,17.88-6.65,17.88h-1.45s.6-11.18-5.9-17.88-18.52-7.1-18.52-7.1v-1.35s12.19-1.74,18.52-8.68,7.44-17.32,7.44-17.32h1.18s1.07,11.77,5.37,17.32,17.52,8.42,17.52,8.42Z"/><path id="Tracé_22" data-name="Tracé 22" class="cls-11" d="M503.69,243.75s-11.25.61-17.09,6.86S480.11,267,480.11,267H478.7s.58-10.27-5.75-16.43-18.08-6.52-18.08-6.52v-1.85s11.9.35,18.08-6S479.4,219,479.4,219h1.47s1.53,12.15,5.73,17.25,17.09,6.14,17.09,6.14Z"/><path id="Tracé_24" data-name="Tracé 24" class="cls-12" d="M211,461.6s-.95-13.37-16.45-26S168.71,412.68,176,396.42s21.3-10.54,30.85-37.29S193,293.54,254.23,287.76s42.82-38.13,79-38.42,14.59,30.26,81.9,29.84,20.41,53.94,52.3,71.54,20.21,52.66,20.21,52.66"/><path id="Tracé_25" data-name="Tracé 25" class="cls-13" d="M222.72,491.89s-1-13.37-16.46-26S180.45,443,187.73,426.71s21.3-10.53,30.84-37.29S204.7,323.83,266,318.05s42.81-38.13,79-38.42,14.6,30.27,81.9,29.84,20.42,53.94,52.3,71.54,20.22,52.67,20.22,52.67"/><path id="Tracé_26" data-name="Tracé 26" class="cls-14" d="M263.18,398.55v25.69"/><path id="Tracé_27" data-name="Tracé 27" class="cls-14" d="M250.48,411.39H277"/><path id="Tracé_28" data-name="Tracé 28" class="cls-15" d="M263.18,398.55v25.69"/><path id="Tracé_29" data-name="Tracé 29" class="cls-15" d="M250.48,411.39H277"/><path id="Tracé_30" data-name="Tracé 30" class="cls-7" d="M287,432.55v22.23"/><path id="Tracé_31" data-name="Tracé 31" class="cls-7" d="M277,443.67h20.88"/><path id="Tracé_32" data-name="Tracé 32" class="cls-11" d="M406.34,409.25s-11.24.62-17.09,6.86-6.48,16.44-6.48,16.44h-1.42s.58-10.28-5.75-16.44-18.08-6.9-18.08-6.9v-1.46s12.33.35,18.51-6,6.37-17.25,6.37-17.25h1.39s1.26,12.14,5.46,17.25,17.09,6.13,17.09,6.13Z"/></svg>