<svg id="Calque_1" data-name="Calque 1" xmlns="http://www.w3.org/2000/svg" xmlns:xlink="http://www.w3.org/1999/xlink" viewBox="0 0 618.25 567.12"><defs><style>.cls-1{fill:url(#Dégradé_sans_nom);}.cls-10,.cls-12,.cls-13,.cls-14,.cls-15,.cls-16,.cls-2,.cls-3,.cls-4,.cls-6,.cls-8{fill:none;}.cls-12,.cls-13,.cls-14,.cls-15,.cls-3,.cls-4{stroke:#fff;}.cls-3,.cls-4{stroke-miterlimit:4;}.cls-3{stroke-width:2px;}.cls-4{stroke-width:3px;}.cls-5{fill:url(#Dégradé_sans_nom_5);}.cls-10,.cls-6{stroke:#dbe7f9;}.cls-15,.cls-6,.cls-8{stroke-width:2px;}.cls-7{fill:url(#Dégradé_sans_nom_4);}.cls-16,.cls-8{stroke:#f8e3da;}.cls-9{fill:url(#Dégradé_sans_nom_4-2);}.cls-11{fill:url(#Dégradé_sans_nom_5-2);}.cls-13,.cls-14{stroke-linecap:round;}.cls-13{stroke-width:2px;}</style><linearGradient id="Dégradé_sans_nom" x1="11.98" y1="705.53" x2="11.98" y2="704.53" gradientTransform="matrix(539.17, 0, 0, -529.55, -6152.19, 373640.74)" gradientUnits="userSpaceOnUse"><stop offset="0" stop-color="#4737fa" stop-opacity="0.25"/><stop offset="0.51" stop-color="#4737fa" stop-opacity="0.58"/><stop offset="1" stop-color="#1500ff" stop-opacity="0.25"/></linearGradient><radialGradient id="Dégradé_sans_nom_5" cx="11.96" cy="703.75" r="0.5" gradientTransform="matrix(98.44, 0, 0, -101.12, -834.07, 71291.92)" gradientUnits="userSpaceOnUse"><stop offset="0" stop-color="#fff"/><stop offset="1" stop-color="#dbe7f9"/></radialGradient><radialGradient id="Dégradé_sans_nom_4" cx="11.94" cy="701.97" r="0.5" gradientTransform="matrix(47, 0, 0, -47.68, -188.31, 33723.5)" gradientUnits="userSpaceOnUse"><stop offset="0" stop-color="#fff"/><stop offset="1" stop-color="#f8e3da"/></radialGradient><radialGradient id="Dégradé_sans_nom_4-2" cx="11.96" cy="703.34" r="0.5" gradientTransform="matrix(76.6, 0, 0, -80.63, -714.85, 57043.02)" xlink:href="#Dégradé_sans_nom_4"/><radialGradient id="Dégradé_sans_nom_5-2" cx="11.94" cy="702.27" r="0.5" gradientTransform="matrix(50.04, 0, 0, -52.33, -228.84, 37152.51)" xlink:href="#Dégradé_sans_nom_5"/></defs><path id="Tracé_4" data-name="Tracé 4" class="cls-1" d="M516.3,87.12c-90.76-98.4-188-74.64-398.41,24.83s44.53,474.73,219.25,439.5c62.72-12.64,98.57-47.24,139.87-91.75,78-91.25,93.28-155.6,93.28-155.6S607.06,185.51,516.3,87.12Z"/><g id="Ellipse_1" data-name="Ellipse 1"><ellipse class="cls-2" cx="205.51" cy="176.07" rx="49.66" ry="181.44" transform="translate(-12.3 336.68) rotate(-76.99)"/><ellipse class="cls-3" cx="205.51" cy="176.07" rx="48.66" ry="180.44" transform="translate(-12.3 336.68) rotate(-76.99)"/></g><g id="Ellipse_2" data-name="Ellipse 2"><ellipse class="cls-2" cx="197.81" cy="210.52" rx="49.98" ry="181.94" transform="translate(-51.83 355.87) rotate(-76.99)"/><ellipse class="cls-4" cx="197.81" cy="210.52" rx="48.48" ry="180.44" transform="translate(-51.83 355.87) rotate(-76.99)"/></g><path id="Tracé_6" data-name="Tracé 6" class="cls-5" d="M392.76,127.37s-22.67,1.28-34.46,14.42-13.07,34.57-13.07,34.57h-2.86s1.17-21.61-11.6-34.57-36.45-14.42-36.45-14.42v-2.43s24,0,36.45-13.42,14.45-36.29,14.45-36.29h2.06s2.55,25.56,11,36.29,34.46,12.9,34.46,12.9Z"/><path id="Tracé_8" data-name="Tracé 8" class="cls-6" d="M487.45,185.47s-18.14,1-27.57,10.81-10.46,25.9-10.46,25.9h-2.29s.57-16.19-9.65-25.9-28.8-10.81-28.8-10.81v-2.38s18.83-.16,28.8-10.21,10.59-26.47,10.59-26.47h2.68s2.35,18.43,9.13,26.47,27.57,10.38,27.57,10.38Z"/><path id="Tracé_9" data-name="Tracé 9" class="cls-7" d="M396.21,253.83s-10.83.61-16.45,6.8-6.25,16.3-6.25,16.3h-1.36s-.45-10.19-6.55-16.3-16.39-6.46-16.39-6.46v-1.84s10.44.35,16.39-6,6.09-17.11,6.09-17.11h1.82s2.2,12.05,6.25,17.11,16.45,6.08,16.45,6.08Z"/><path id="Tracé_10" data-name="Tracé 10" class="cls-8" d="M447.86,75.23v34.88"/><path id="Tracé_11" data-name="Tracé 11" class="cls-8" d="M467.23,92.67H428.89"/><path id="Tracé_12" data-name="Tracé 12" class="cls-9" d="M162.66,335.76s17.64,1,26.81,11.5,10.18,27.56,10.18,27.56h2.22s.74-17.23,10.67-27.56,26.72-10.92,26.72-10.92v-3.11s-17,.59-26.72-10.1-9.92-28.94-9.92-28.94h-3s-3.58,20.38-10.18,28.94-26.81,10.1-26.81,10.1Z"/><path id="Tracé_13" data-name="Tracé 13" class="cls-6" d="M61.66,299.22S75.67,300,83,308,91,329.14,91,329.14H92.8s.59-13.2,8.48-21.11,21.22-9.23,21.22-9.23v-1.43s-13.52.36-21.22-7.83-7.88-22.16-7.88-22.16H91S88.19,283,83,289.54s-21.3,7.88-21.3,7.88Z"/><path id="Tracé_15" data-name="Tracé 15" class="cls-6" d="M159.71,164.9v30.5"/><path id="Tracé_16" data-name="Tracé 16" class="cls-6" d="M143.83,179h31.9"/><path id="Tracé_17" data-name="Tracé 17" class="cls-6" d="M118.92,385.23v31.52"/><path id="Tracé_18" data-name="Tracé 18" class="cls-6" d="M104,401h30.65"/><path id="Tracé_19" data-name="Tracé 19" class="cls-10" d="M171.41,412.51v23"/><path id="Tracé_20" data-name="Tracé 20" class="cls-10" d="M159.71,424h24.41"/><path id="Tracé_21" data-name="Tracé 21" class="cls-11" d="M393.6,401.8s-11.52.67-17.51,7.47-6.65,17.89-6.65,17.89H368s.59-11.19-5.9-17.89-18.53-7.09-18.53-7.09v-1.36s12.2-1.74,18.53-8.68,7.43-17.32,7.43-17.32h1.19s1.07,11.77,5.37,17.32,17.52,8.43,17.52,8.43Z"/><path id="Tracé_22" data-name="Tracé 22" class="cls-12" d="M523.87,319s-11.25.61-17.1,6.86-6.48,16.43-6.48,16.43h-1.41s.57-10.27-5.76-16.43S475,319.32,475,319.32v-1.85s11.9.35,18.08-6,6.46-17.26,6.46-17.26h1.47s1.52,12.15,5.73,17.26,17.09,6.13,17.09,6.13Z"/><path id="Tracé_24" data-name="Tracé 24" class="cls-13" d="M231.16,536.83s-1-13.37-16.45-26-25.82-22.93-18.54-39.19,21.3-10.53,30.85-37.29S213.14,368.77,274.41,363s42.81-38.13,79-38.42,14.59,30.27,81.9,29.84,20.41,53.94,52.3,71.54,20.21,52.67,20.21,52.67"/><path id="Tracé_25" data-name="Tracé 25" class="cls-14" d="M242.89,567.12s-.95-13.36-16.45-26-25.82-22.93-18.53-39.19,21.3-10.53,30.84-37.28-13.87-65.6,47.39-71.38,42.82-38.12,79-38.42,14.59,30.27,81.9,29.85,20.41,53.94,52.3,71.54,20.21,52.66,20.21,52.66"/><path id="Tracé_26" data-name="Tracé 26" class="cls-15" d="M283.36,473.78v25.69"/><path id="Tracé_27" data-name="Tracé 27" class="cls-15" d="M270.66,486.62h26.49"/><path id="Tracé_28" data-name="Tracé 28" class="cls-16" d="M283.36,473.78v25.69"/><path id="Tracé_29" data-name="Tracé 29" class="cls-16" d="M270.66,486.62h26.49"/><path id="Tracé_30" data-name="Tracé 30" class="cls-8" d="M307.16,507.78V530"/><path id="Tracé_31" data-name="Tracé 31" class="cls-8" d="M297.15,518.9H318"/><path id="Tracé_32" data-name="Tracé 32" class="cls-12" d="M426.52,484.49s-11.25.61-17.09,6.86-6.49,16.43-6.49,16.43h-1.41s.58-10.27-5.75-16.43-18.08-6.9-18.08-6.9V483s12.33.35,18.51-6,6.37-17.25,6.37-17.25H404s1.27,12.15,5.47,17.25,17.09,6.13,17.09,6.13Z"/></svg>